<svg width="59" height="59" viewBox="0 0 59 59" fill="none" xmlns="http://www.w3.org/2000/svg">
<rect width="59" height="59" rx="8" fill="#2D41D3"/>
<g clip-path="url(#clip0_207_7159)">
<path d="M35.1411 8.06842C28.468 8.71342 23.0952 14.1507 22.5117 20.829C22.2997 23.2563 22.7089 25.5657 23.5904 27.6253L8.58789 42.6278C8.44851 42.7672 8.37067 42.9555 8.37067 43.152V50.2588C8.37067 50.6681 8.7028 51.0002 9.11205 51.0002H14.7361C14.9326 51.0002 15.1217 50.9224 15.2603 50.783L17.2672 48.7761V44.3278H20.9741V42.1037H23.1983V39.1381H26.9051L31.0042 35.0391C33.063 35.9206 35.3724 36.3298 37.799 36.1178C44.4773 35.535 49.9153 30.1637 50.5611 23.4906C51.4211 14.6081 44.0229 7.2099 35.1411 8.06842Z" fill="#EDBA45"/>
<path d="M40.9914 20.6034C42.6292 20.6034 43.9569 19.2757 43.9569 17.6379C43.9569 16.0001 42.6292 14.6724 40.9914 14.6724C39.3536 14.6724 38.0259 16.0001 38.0259 17.6379C38.0259 19.2757 39.3536 20.6034 40.9914 20.6034Z" fill="#2D41D3"/>
<path d="M13.5603 42.8448C13.3705 42.8448 13.1807 42.7722 13.0361 42.6276C12.7463 42.3377 12.7463 41.8692 13.0361 41.5793L21.9327 32.6827C22.2218 32.3929 22.6919 32.3929 22.981 32.6827C23.2709 32.9726 23.2709 33.4412 22.981 33.7311L14.0844 42.6276C13.9399 42.7722 13.7501 42.8448 13.5603 42.8448Z" fill="#F1FF76"/>
<path d="M36.5431 33.9482C36.1339 33.9482 35.8018 33.616 35.8018 33.2068C35.8018 32.7976 36.1339 32.4654 36.5431 32.4654C42.2666 32.4654 46.9224 27.8096 46.9224 22.0861C46.9224 21.6769 47.2546 21.3447 47.6638 21.3447C48.0731 21.3447 48.4052 21.6769 48.4052 22.0861C48.4052 28.6266 43.0843 33.9482 36.5431 33.9482Z" fill="#F1FF76"/>
</g>
<defs>
<clipPath id="clip0_207_7159">
<rect width="43" height="43" fill="white" transform="translate(8 8)"/>
</clipPath>
</defs>
</svg>
